<svg id="round-email-24px" xmlns="http://www.w3.org/2000/svg" width="18" height="18" viewBox="0 0 18 18">
  <path id="Path_9" data-name="Path 9" d="M0,0H18V18H0Z" fill="none"/>
  <path id="Path_10" data-name="Path 10" d="M15.8,4H3.533A1.557,1.557,0,0,0,2.008,5.583L2,15.083a1.563,1.563,0,0,0,1.533,1.583H15.8a1.563,1.563,0,0,0,1.533-1.583v-9.5A1.563,1.563,0,0,0,15.8,4Zm-.307,3.364-5.42,3.5a.755.755,0,0,1-.813,0l-5.42-3.5a.683.683,0,0,1-.307-.57.651.651,0,0,1,1-.57L9.667,9.541,14.8,6.225a.651.651,0,0,1,1,.57A.683.683,0,0,1,15.493,7.364Z" transform="translate(-0.667 -1.333)" fill="rgba(0,0,0,0.4)"/>
</svg>
